<?xml version="1.0" standalone="no"?><!DOCTYPE svg PUBLIC "-//W3C//DTD SVG 1.1//EN" "http://www.w3.org/Graphics/SVG/1.1/DTD/svg11.dtd"><svg t="1572589346134" class="icon" viewBox="0 0 1024 1024" version="1.1" xmlns="http://www.w3.org/2000/svg" p-id="14460" xmlns:xlink="http://www.w3.org/1999/xlink" width="200" height="200"><defs><style type="text/css"></style></defs><path d="M945.189871 507.430031L547.929925 507.000031a30.999996 30.999996 0 0 1-30.859996-30.869996l-0.47-397.309946a40.749994 40.749994 0 0 0-41.179994-40.719994C368.11995 39.290095 267.709963 74.66009 184.999975 140.180081a480.239934 480.239934 0 0 0-102.329986 111.699985 493.139933 493.139933 0 0 0-63.999992 140.40998c-24.809997 88.429988-24.929997 180.899975-0.36 267.429964 23.139997 81.549989 67.529991 156.799979 128.299983 217.56997S282.779961 982.569966 364.19995 1005.599963a485.599934 485.599934 0 0 0 132.579982 18.399997 499.599932 499.599932 0 0 0 134.999982-18.629997 493.839932 493.839932 0 0 0 140.40998-63.999992 482.869934 482.869934 0 0 0 111.639985-102.299986c65.639991-82.729989 100.879986-183.269975 102.069986-290.44996a40.729994 40.729994 0 0 0-40.709994-41.189994zM828.049887 794.919991a409.619944 409.619944 0 0 1-95.189987 87.239988 424.509942 424.509942 0 0 1-120.239984 54.719993c-75.83999 21.119997-154.999979 21.249997-228.949968 0.35C313.879957 917.409975 249.309966 879.30998 196.999973 826.999987S106.529985 710.170003 86.709988 640.250012c-20.999997-73.99999-20.899997-153.119979 0.35-228.999968a424.299942 424.299942 0 0 1 54.709993-120.229984A411.479944 411.479944 0 0 1 228.999969 195.850073c62.309991-49.379993 136.619981-78.579989 216.36997-85.229988l0.6 426.599942a40.779994 40.779994 0 0 0 40.709994 40.719994l426.569942 0.59c-6.639999 79.759989-35.719995 154.069979-85.209988 216.38997z m0 0" p-id="14461"></path><path d="M990.999865 256.270065A419.249943 419.249943 0 0 0 604.429917 0.0001a35.559995 35.559995 0 0 0-35.609995 35.609995v384.579948a35.679995 35.679995 0 0 0 35.609995 35.609995l383.999948-0.48a35.549995 35.549995 0 0 0 35.569995-35.609995 418.199943 418.199943 0 0 0-32.999995-163.439978zM639.999913 384.460047V73.00009c79.639989 8.069999 153.349979 42.999994 210.669971 100.299986A346.169953 346.169953 0 0 1 950.99987 384.100047z m0 0" p-id="14462"></path></svg>