<?xml version="1.0" standalone="no"?><!DOCTYPE svg PUBLIC "-//W3C//DTD SVG 1.1//EN" "http://www.w3.org/Graphics/SVG/1.1/DTD/svg11.dtd"><svg t="1572589324590" class="icon" viewBox="0 0 1024 1024" version="1.1" xmlns="http://www.w3.org/2000/svg" p-id="14124" xmlns:xlink="http://www.w3.org/1999/xlink" width="200" height="200"><defs><style type="text/css"></style></defs><path d="M487.94048 858.56c17.792 0 21.824 4.224 23.168 24.32v52.8c0 19.904-4.032 24.256-23.04 24.256h-49.024c-19.072 0-23.168-4.352-23.168-24.32v-52.8c0-19.968 4.096-24.256 23.168-24.256h48.896z m-163.2 0c17.6 0 21.76 4.224 23.04 24.32v52.8c0 19.904-4.032 24.256-23.04 24.256h-48.96c-19.072 0-23.168-4.352-23.168-24.32v-52.8c0-19.968 4.096-24.256 23.168-24.256h48.896z m23.04-154.304v52.864c0 19.84-4.032 24.192-23.04 24.192h-48.96c-19.072 0-23.168-4.352-23.168-24.192v-51.392c0-20.096 4.096-24.32 23.168-24.32h48.896c17.664-0.064 21.76 4.352 23.168 22.848z m140.16-201.344c17.728 0 21.824 4.224 23.232 24.192v52.8c0 20.032-4.096 24.32-23.232 24.32h-48.896c-19.136 0-23.104-4.288-23.104-24.32v-52.8c0-19.968 3.968-24.192 23.04-24.192h48.96z m0 178.56c17.792 0 21.824 4.16 23.168 22.784v52.864c0 19.968-4.032 24.192-23.04 24.192h-49.024c-19.072 0-23.168-4.224-23.168-24.192v-51.392c0-20.096 4.096-24.256 23.168-24.256h48.896z m-163.2-178.56c17.6 0 21.76 2.816 23.04 24.192v52.8c0 20.032-4.032 24.32-23.04 24.32h-48.96c-19.072 0-23.168-4.288-23.168-24.32v-52.8c0-19.968 4.096-24.192 23.168-24.192h48.896z m210.56-430.08l-378.24 257.088 0.512 661.696a31.872 31.872 0 0 1-31.232 32.384 31.872 31.872 0 0 1-31.296-32.384l-0.64-613.184-44.288 34.112a30.08 30.08 0 0 1-31.04 3.968 32.96 32.96 0 0 1-6.336-55.872L516.61248 6.528a30.336 30.336 0 0 1 37.504 0l456.96 354.112a32.832 32.832 0 0 1 13.056 30.08 32 32 0 0 1-19.072 26.24 30.272 30.272 0 0 1-31.424-4.416L535.17248 72.832z m359.872 744.64l122.048 124.416a30.4 30.4 0 0 1-1.856 40.64 28.928 28.928 0 0 1-39.744 1.92l-122.112-124.608-1.536 1.088a184.448 184.448 0 0 1-252.16-32.768 193.536 193.536 0 0 1 10.176-259.2 184.448 184.448 0 0 1 254.08-10.368 193.6 193.6 0 0 1 32.192 257.28l-1.088 1.6z m-151.552 18.816a127.36 127.36 0 0 0 90.688-38.464 133.952 133.952 0 0 0 16.128-166.144 127.872 127.872 0 0 0-156.544-48.512c-56.704 23.936-89.152 85.76-77.248 147.2 11.968 61.376 65.152 105.856 126.464 105.92h0.512z" p-id="14125"></path></svg>