<?xml version="1.0" standalone="no"?><!DOCTYPE svg PUBLIC "-//W3C//DTD SVG 1.1//EN" "http://www.w3.org/Graphics/SVG/1.1/DTD/svg11.dtd"><svg t="1572589332475" class="icon" viewBox="0 0 1024 1024" version="1.1" xmlns="http://www.w3.org/2000/svg" p-id="14349" xmlns:xlink="http://www.w3.org/1999/xlink" width="200" height="200"><defs><style type="text/css"></style></defs><path d="M373.37664 478.08H33.60064a31.808 31.808 0 0 0-32.064 32c0 17.6 14.528 32.064 32.064 32.064h339.84a31.808 31.808 0 0 0 32-32 32.256 32.256 0 0 0-32-32.128zM226.04864 615.424H33.60064a31.808 31.808 0 0 0-32.064 32c0 17.6 14.528 32.128 32.064 32.128h192.448a31.808 31.808 0 0 0 32-32.064 31.808 31.808 0 0 0-32-32.064z m586.432 31.296c0-2.304 0-4.608-0.768-6.848 0-0.768-0.768-2.304-0.768-3.072 0-0.768-0.768-2.304-0.768-3.072-0.768-1.536-1.536-2.304-1.536-3.84-0.768-0.768-0.768-1.472-0.768-2.24-1.472-1.536-2.24-3.84-4.544-5.376l-110.72-109.184a32.256 32.256 0 0 0-45.056 0 32.256 32.256 0 0 0 0 45.056l54.976 54.976H514.68864a31.808 31.808 0 0 0-32.064 32.064c0 18.304 14.464 32.064 32 32.064h188.672l-55.04 55.04a32.256 32.256 0 0 0 0 44.992c12.288 12.992 32.896 12.224 45.12 0l109.952-109.952c1.536-1.536 3.072-3.072 4.544-5.312 0.768-0.768 0.768-1.536 1.536-2.304 0.768-1.536 1.536-2.304 1.536-3.84 0.768-0.768 0.768-2.304 0.768-3.072 0-0.768 0.768-2.24 0.768-3.008v-3.072zM129.02464 751.36H32.83264a32.256 32.256 0 0 0-32.064 32.128c0 17.536 13.76 32 32.064 32h95.424a31.808 31.808 0 0 0 32.128-32 31.168 31.168 0 0 0-31.36-32.128z m863.68-508.544l-87.808-168.768C883.52064 32.832 830.01664 0 782.65664 0H244.41664C197.76064 0 144.32064 32.064 122.17664 74.048L34.36864 238.272C15.29664 273.28 0.76864 333.696 0.76864 374.144v25.984c0 17.536 13.76 32.064 32.064 32.064a31.808 31.808 0 0 0 32.064-32v-26.048c0-2.24 0.768-6.08 0.768-9.152h895.744c0.768 4.608 0.768 9.152 0.768 12.224v550.592a31.808 31.808 0 0 1-32.128 32H96.19264a32.256 32.256 0 0 1-32-32v-38.976a31.808 31.808 0 0 0-32.128-32.064 31.808 31.808 0 0 0-32.064 32.064v39.68C0.00064 982.08 42.75264 1024 95.42464 1024H928.64064c53.44 0 95.424-43.52 95.424-95.424V378.752c1.536-40.448-12.16-100.8-31.36-135.936z m-914.048 58.048c3.84-12.16 8.384-24.448 12.16-32.064l87.872-164.928c10.688-20.608 41.984-39.68 65.664-39.68h539.136c23.68 0 54.208 19.072 65.664 39.68L936.96064 272.64c4.544 8.32 8.384 18.304 11.456 29.76L78.65664 300.8z" p-id="14350"></path></svg>