<?xml version="1.0" standalone="no"?><!DOCTYPE svg PUBLIC "-//W3C//DTD SVG 1.1//EN" "http://www.w3.org/Graphics/SVG/1.1/DTD/svg11.dtd"><svg t="1572589283418" class="icon" viewBox="0 0 1024 1024" version="1.1" xmlns="http://www.w3.org/2000/svg" p-id="13680" xmlns:xlink="http://www.w3.org/1999/xlink" width="200" height="200"><defs><style type="text/css"></style></defs><path d="M172 117.8h230.3c38.2 0 69.1 30.9 69.1 69.1v230.3c0 38.2-30.9 69.1-69.1 69.1H172c-38.2 0-69.1-30.9-69.1-69.1V186.8c0-38.1 31-69 69.1-69z m23 46c-12.2 0-23.9 4.9-32.6 13.5-8.6 8.6-13.5 20.3-13.5 32.6v184.2c0 12.2 4.9 23.9 13.5 32.6 8.6 8.6 20.4 13.5 32.6 13.5h184.2c12.2 0 23.9-4.9 32.6-13.5 8.6-8.6 13.5-20.4 13.5-32.6V209.9c0-12.2-4.9-23.9-13.5-32.6-8.6-8.6-20.3-13.5-32.6-13.5H195z m-23 391.5h230.3c18.3 0 35.9 7.3 48.9 20.2 13 13 20.2 30.5 20.2 48.9v230.3c0 18.3-7.3 35.9-20.2 48.9-13 13-30.5 20.2-48.9 20.2H172c-18.3 0-35.9-7.3-48.8-20.2-13-13-20.2-30.5-20.2-48.9V624.4c0-18.3 7.3-35.9 20.2-48.9 12.9-12.9 30.5-20.2 48.8-20.2z m23 46c-25.4 0-46.1 20.6-46.1 46.1v184.2c0 25.4 20.6 46.1 46.1 46.1h184.2c25.4 0 46.1-20.6 46.1-46.1V647.4c0-25.4-20.6-46.1-46.1-46.1H195z m414.5-46h230.3c18.3 0 35.9 7.3 48.8 20.2 13 13 20.2 30.5 20.2 48.9v230.3c0 18.3-7.3 35.9-20.2 48.9-13 13-30.5 20.2-48.8 20.2H609.5c-18.3 0-35.9-7.3-48.8-20.2-13-13-20.2-30.5-20.2-48.9V624.4c0-18.3 7.3-35.9 20.2-48.9 13-12.9 30.5-20.2 48.8-20.2z m23.1 46c-25.4 0-46.1 20.6-46.1 46.1v184.2c0 25.4 20.6 46.1 46.1 46.1h184.2c25.4 0 46.1-20.6 46.1-46.1V647.4c0-25.4-20.6-46.1-46.1-46.1H632.6zM762 118.1l146.6 146.6c27 27 27 70.7 0 97.7L762 508.9c-27 27-70.7 27-97.7 0L517.8 362.3c-27-27-27-70.7 0-97.7L664.4 118c26.9-26.9 70.6-26.9 97.6 0.1zM745.7 167c-18-18-47.1-18-65.1 0l-114 114c-18 18-18 47.1 0 65.1l114 114c18 18 47.1 18 65.1 0l114-114c18-18 18-47.1 0-65.1l-114-114z m0 0" p-id="13681"></path></svg>