<?xml version="1.0" standalone="no"?><!DOCTYPE svg PUBLIC "-//W3C//DTD SVG 1.1//EN" "http://www.w3.org/Graphics/SVG/1.1/DTD/svg11.dtd"><svg t="1572590309176" class="icon" viewBox="0 0 1024 1024" version="1.1" xmlns="http://www.w3.org/2000/svg" p-id="16070" xmlns:xlink="http://www.w3.org/1999/xlink" width="200" height="200"><defs><style type="text/css"></style></defs><path d="M462.03082272 965.73566419c-88.80532543 0-205.57267753 0-321.6927605-0.25890766-32.23400297-0.12945383-52.16989235-18.25298963-56.31241481-51.00480789-0.9061768-6.86105283-0.77672297-13.72210569-0.77672296-20.32425086v-3.75416098-245.57391013-491.14782025c0-29.51547259 4.78979161-46.86228543 15.92282073-58.12476839 11.13302914-11.13302914 28.47984197-15.92282075 57.99531457-15.92282075 122.98113581 0.12945383 248.2924405 0.12945383 369.46122272 0.12945383h372.17975308c51.0048079 0 70.94069728 19.5475279 71.07015112 69.77561284 0.12945383 187.44914173 0.12945383 378.13462914 0 562.60633285v6.08432987c0 6.08432987 0.12945383 13.07483653-1.55344592 19.67698172-5.56651457 21.61878914-19.5475279 33.39908741-39.35396347 33.39908742-1.68289975 0-3.3657995-0.12945383-5.04869925-0.25890766-21.23042765-2.07126124-34.69362569-16.05227457-36.89434075-38.31833284-0.64726914-5.95487605-0.51781531-11.9097521-0.38836147-17.73517433 0-2.07126124 0.12945383-4.01306864 0.12945382-6.08432987v-117.80298272c0-135.14979555-0.12945383-274.95992889 0.51781531-412.43989333 0-7.50832197-0.77672297-12.03920592-2.33016889-13.59265186-1.03563061-1.03563061-4.2719763-2.33016889-13.46319802-2.33016889-108.87066864 0.38836148-222.01331358 0.51781531-336.32104297 0.51781532-114.17827555 0-233.40525037-0.12945383-354.44457876-0.51781532h-0.38836148c-8.80286025 0-11.3919368 1.29453827-12.16865976 2.07126124-0.9061768 0.9061768-2.07126124 3.88361482-2.07126123 12.68647506 0.64726914 224.73184395 0.64726914 457.23091753 0.12945382 690.89507556 0 8.15559111 1.16508445 10.61521383 1.81235359 11.26248297 0.64726914 0.64726914 3.10689185 1.94180741 11.65084445 1.94180739 105.89323061-0.38836148 209.45629235-0.38836148 296.83762567-0.38836147H699.70804939c1.94180741 0 3.88361482 0 5.82542222-0.12945382 2.07126124 0 4.14252247-0.12945383 6.2137837-0.12945383 3.49525333 0 6.34323753 0.12945383 9.06176789 0.25890765 15.01664395 1.16508445 27.57366518 6.99050667 35.21144099 16.31118222 6.60214518 7.89668347 9.45012939 17.73517431 8.41449878 28.60929581-2.45962272 24.98458864-18.90025876 39.35396347-45.17938569 39.35396344h-128.41819653c-43.23757827 0.25890765-86.08679506 0.25890765-128.80655803 0.25890766z" p-id="16071"></path><path d="M907.74034963 862.56096395c-5.43706075-5.43706075-10.87412148-10.87412148-16.18172839-16.44063605-18.25298963-18.38244347-37.02379457-37.54160987-56.18296099-55.66514568-9.0617679-8.67340642-11.3919368-11.78029827-4.66033778-24.85513481 27.57366518-53.72333827 25.63185778-116.12008297-5.30760692-166.86598322-30.81001086-50.74590025-85.18061827-81.03809581-145.50610172-81.29700344-35.85871013-0.9061768-68.99888987 9.0617679-98.6438163 29.90383407-34.95253333 24.46677333-59.5487605 60.84329876-68.99888988 102.5274311-9.5795832 41.68413235-3.23634569 84.92171061 17.73517432 121.68659755 15.27555161 26.79694222 37.15324839 48.93354667 63.3029215 64.07964443 25.63185778 14.88719013 54.75896889 22.65441975 84.40389529 22.65441975 25.11404247 0 49.58081581-5.43706075 72.88250471-16.31118222 5.17815309-2.33016889 8.80286025-3.49525333 11.78029826-3.49525333 2.71853037 0 6.34323753 0.9061768 12.29811358 7.37886815 19.41807408 21.23042765 40.26014025 41.55467852 60.45493728 61.36111406 4.53088395 4.40143013 8.93231408 8.80286025 13.46319802 13.20429038 12.68647506 12.55702124 26.27912691 19.15916642 39.22450964 19.15916642 9.83849086 0 19.15916642-3.88361482 26.92639605-11.26248296 8.02613728-7.63777581 12.29811358-16.95845136 12.4275674-26.92639605 0-12.55702124-6.60214518-26.02021925-19.41807407-38.83614815z m-167.64270616-111.97756048c-16.6995437 16.95845136-38.83614815 26.79694222-60.97275261 26.79694222h-0.51781531c-46.60337778-0.38836148-86.47515653-40.38959408-86.86351802-87.38133334-0.38836148-48.02736987 38.96560197-87.51078717 87.76969482-88.02860248h0.77672296c45.04993185 0 85.43952592 39.22450963 86.34570272 84.01553383 0.38836148 23.43114272-9.19122173 46.99173925-26.53803456 64.59745977zM490.51066469 298.0128237c-1.03563061-41.0368632-29.25656494-69.38725136-70.16397432-70.42288197-22.00715061-0.64726914-44.79102419-0.9061768-67.83380543-0.90617679-21.8776968 0-44.79102419 0.25890765-67.70435161 0.77672296-20.58315852 0.51781531-38.18887902 7.63777581-51.0048079 20.71261235-12.68647506 12.94538272-19.67698173 30.81001086-20.19479704 51.52262322-0.9061768 41.16631703-0.9061768 83.88608-0.12945382 130.36000394 0.77672297 43.23757827 29.25656494 71.9763279 72.75305086 73.27086617 6.99050667 0.25890765 14.49882864 0.25890765 23.43114272 0.25890766 6.73159902 0 13.59265185 0 20.32425087-0.12945383 6.73159902 0 13.46319803-0.12945383 20.19479703-0.12945383 6.99050667 0 14.11046717 0 21.10097382 0.12945383 6.99050667 0 14.11046717 0.12945383 21.23042766 0.12945383 10.22685235 0 18.77080494-0.12945383 26.79694222-0.38836149 41.29577086-1.29453827 69.77561283-29.38601876 71.07015111-69.646159 1.4239921-43.23757827 1.4239921-88.80532543 0.12945383-135.53815705z m-84.27444149 120.65096691c-3.10689185 2.58907653-8.93231408 3.88361482-17.73517431 3.88361482-5.82542222 0-12.29811358-0.51781531-18.64135111-1.03563061-5.43706075-0.51781531-11.13302914-0.9061768-16.44063605-1.03563063-7.1199605-0.12945383-14.62828247 0.64726914-21.87769679 1.55344594-6.34323753 0.77672297-12.29811358 1.4239921-17.73517433 1.42399209-9.5795832 0-12.94538272-2.45962272-14.49882864-4.14252247-5.04869925-5.69596839-3.62470717-22.26605827-2.45962272-35.59980247 0.51781531-5.69596839 1.03563061-11.52139061 1.16508445-16.82899753 0.12945383-7.1199605-0.64726914-14.62828247-1.55344592-22.00715061-1.55344592-13.33374419-3.10689185-27.05584987 2.71853037-32.36345679 2.45962272-2.33016889 7.89668347-3.49525333 15.92282074-3.49525333 5.95487605 0 12.68647506 0.64726914 19.15916642 1.16508445 5.82542222 0.51781531 11.78029827 1.03563061 17.217359 1.16508443 7.1199605 0.12945383 14.88719013-0.77672297 22.26605828-1.55344593 6.47269136-0.77672297 12.68647506-1.4239921 18.1235358-1.4239921 6.99050667 0 11.26248297 1.16508445 13.3337442 3.75416099 4.78979161 5.82542222 3.10689185 20.84206617 1.68289976 34.04635655-0.77672297 7.1199605-1.55344592 14.49882864-1.55344593 21.48933531 0 6.99050667 1.16508445 14.36937482 2.20071506 21.48933531 1.81235358 11.78029827 3.88361482 25.37295013-1.29453828 29.51547258zM830.45641482 290.24559408c-3.3657995-37.15324839-30.29219555-61.74947555-68.6105284-62.65565235-24.3373195-0.51781531-46.86228543-0.9061768-68.99888989-0.90617679-23.81950419 0-46.99173925 0.38836148-69.1283437 1.03563061-40.38959408 1.16508445-67.96325925 30.0332879-68.48107456 71.71742026-0.64726914 47.63900839-0.64726914 91.13549431 0 132.81962666 0.64726914 40.26014025 29.12711111 69.38725136 69.25779754 71.07015111 7.63777581 0.25890765 15.66391309 0.38836148 25.50240394 0.38836148 6.86105283 0 13.8515595-0.12945383 20.58315852-0.12945382 6.73159902-0.12945383 13.72210569-0.12945383 20.4537047-0.12945383 6.99050667 0 13.8515595 0 20.84206617 0.12945383 6.99050667 0 13.98101333 0.12945383 20.97152 0.12945382 9.45012939 0 17.21735902-0.12945383 24.59622716-0.25890765 42.71976297-1.03563061 69.25779753-24.20786569 72.88250468-63.8207368 4.66033778-48.67463902 4.66033778-98.90272395 0.12945384-149.38971653z m-81.9442726 75.73048889c-1.16508445 8.15559111-0.12945383 16.82899753 0.77672296 25.24349628 1.29453827 12.03920592 2.58907653 23.30168889-2.8479842 27.83257285-2.97743803 2.45962272-8.41449876 3.62470717-16.82899751 3.62470715-5.56651457 0-11.78029827-0.51781531-17.73517433-1.03563061-6.2137837-0.51781531-12.68647506-1.03563061-18.77080495-1.03563061-5.95487605 0-12.42756741 0.51781531-18.6413511 1.03563061-5.95487605 0.51781531-12.29811358 1.03563061-17.73517433 1.03563061-8.28504494 0-13.8515595-1.16508445-16.57008987-3.49525333-6.08432987-5.30760691-4.40143013-19.02971259-2.8479842-32.23400295 0.9061768-7.37886815 1.81235358-14.88719013 1.55344592-22.00715062-0.12945383-5.17815309-0.64726914-10.74466765-1.03563061-16.1817284-1.16508445-14.23992098-2.58907653-30.29219555 2.71853037-36.50597926 1.94180741-2.33016889 5.95487605-3.3657995 12.29811358-3.36579951 4.91924543 0 10.35630617 0.64726914 16.1817284 1.29453829 6.2137837 0.64726914 12.68647506 1.4239921 18.90025876 1.42399208 1.55344592 0 3.10689185 0 4.53088395-0.12945382H693.75317333c1.55344592 0.12945383 3.23634569 0.12945383 5.04869926 0.12945382 6.08432987 0 12.29811358-0.64726914 18.38244346-1.42399208 5.69596839-0.64726914 11.00357531-1.16508445 15.79336692-1.16508445 6.73159902 0 11.13302914 1.16508445 13.72210567 3.88361481 5.04869925 5.17815309 3.88361482 16.6995437 2.71853038 28.99765728-0.77672297 7.76722963-1.55344592 16.05227457-0.9061768 24.07841186zM504.23277037 652.84576395c-0.38836148-19.41807408-6.60214518-36.11761778-17.99408198-48.54518519-11.65084445-12.68647506-27.83257283-19.93588939-46.99173925-20.71261234-23.43114272-1.03563061-47.25064691-1.55344592-70.94069729-1.55344592-24.85513482 0-49.96917728 0.51781531-74.8243121 1.68289975-37.6710637 1.68289975-63.17346765 28.73874963-64.8563674 68.86943605-0.64726914 15.40500543-0.51781531 30.93946469-0.25890766 45.95610864 0.12945383 6.73159902 0.12945383 13.72210569 0.12945383 20.58315853 0 6.86105283-0.12945383 13.98101333-0.12945383 20.71261234-0.12945383 15.79336691-0.38836148 32.23400297 0.38836148 48.28627752 1.81235358 41.55467852 29.25656494 68.99888987 70.16397433 69.90506667 20.84206617 0.51781531 42.59030914 0.64726914 64.98582123 0.64726914 22.52496592 0 45.56774717-0.25890765 70.5523358-0.64726914 41.16631703-0.77672297 69.38725136-28.99765728 70.16397432-70.0345205 0.51781531-48.54518518 0.51781531-92.81839408-0.38836148-135.14979555z m-84.14498765 121.29823605c-2.84798419 3.23634569-7.89668347 4.66033778-16.05227457 4.66033778-5.82542222 0-12.16865975-0.77672297-18.90025876-1.55344593-6.86105283-0.77672297-14.11046717-1.55344592-20.84206619-1.55344593h-0.90617678c-5.17815309 0-9.96794469 0.12945383-14.23992099 0.12945383-17.21735902 0-28.0914805-0.77672297-31.84564148-4.66033778-4.91924543-4.91924543-4.91924543-21.61878914-4.7897916-46.7328316 0-6.60214518-0.51781531-13.72210569-1.16508445-20.58315852-1.16508445-14.49882864-2.58907653-30.93946469 2.97743802-37.80051754 1.68289975-2.07126124 4.66033778-4.40143013 13.33374421-4.40143012 5.04869925 0 10.74466765 0.77672297 16.82899752 1.55344594 6.73159902 0.9061768 13.8515595 1.81235358 20.84206618 1.81235357h0.90617678c5.17815309 0 9.96794469-0.12945383 14.239921-0.12945383 12.81592889 0 25.63185778 0.25890765 29.12711111 3.88361482 3.62470717 3.62470717 3.62470717 17.08790518 3.49525333 35.85871013v23.30168888h3.23634568c0.64726914 5.82542222 1.81235358 11.65084445 2.84798419 17.34681283 1.94180741 11.00357531 4.53088395 24.72568098 0.9061768 28.86820347z" p-id="16072"></path></svg>