<?xml version="1.0" standalone="no"?><!DOCTYPE svg PUBLIC "-//W3C//DTD SVG 1.1//EN" "http://www.w3.org/Graphics/SVG/1.1/DTD/svg11.dtd"><svg t="1572589328774" class="icon" viewBox="0 0 1024 1024" version="1.1" xmlns="http://www.w3.org/2000/svg" p-id="14235" xmlns:xlink="http://www.w3.org/1999/xlink" width="200" height="200"><defs><style type="text/css"></style></defs><path d="M424.96 266.24c-56.32 0-104.96-47.36-104.96-104.96S367.36 56.32 424.96 56.32s104.96 47.36 104.96 104.96-48.64 104.96-104.96 104.96z m0-152.32c-25.6 0-47.36 21.76-47.36 47.36s21.76 47.36 47.36 47.36 47.36-21.76 47.36-47.36-21.76-47.36-47.36-47.36zM1024 161.28c0-15.36-12.8-28.16-28.16-28.16H625.92c-15.36 0-28.16 12.8-28.16 28.16s12.8 28.16 28.16 28.16h369.92c15.36-2.56 28.16-12.8 28.16-28.16z" p-id="14236"></path><path d="M0 161.28c0 15.36 12.8 28.16 28.16 28.16h309.76V134.4H28.16C12.8 133.12 0 145.92 0 161.28z m229.12 455.68c-56.32 0-104.96-47.36-104.96-104.96s47.36-104.96 104.96-104.96S332.8 455.68 332.8 512s-47.36 104.96-103.68 104.96z m0-152.32c-25.6 0-47.36 21.76-47.36 47.36s21.76 47.36 47.36 47.36 47.36-21.76 47.36-47.36-21.76-47.36-47.36-47.36z" p-id="14237"></path><path d="M28.16 483.84C12.8 483.84 0 496.64 0 512s12.8 28.16 28.16 28.16h135.68V486.4H28.16v-2.56z m967.68 0H428.8c-15.36 0-28.16 12.8-28.16 28.16s12.8 28.16 28.16 28.16h567.04c15.36 0 28.16-12.8 28.16-28.16s-12.8-28.16-28.16-28.16zM661.76 967.68c-56.32 0-104.96-47.36-104.96-104.96s47.36-104.96 104.96-104.96 104.96 47.36 104.96 104.96-47.36 104.96-104.96 104.96z m0-152.32c-25.6 0-47.36 21.76-47.36 47.36s21.76 47.36 47.36 47.36 47.36-21.76 47.36-47.36-20.48-47.36-47.36-47.36z" p-id="14238"></path><path d="M0 862.72c0 15.36 12.8 28.16 28.16 28.16h549.12v-55.04H28.16C12.8 837.12 0 847.36 0 862.72z m995.84-25.6H860.16c-15.36 0-28.16 12.8-28.16 28.16s12.8 28.16 28.16 28.16h135.68c15.36 0 28.16-12.8 28.16-28.16 0-17.92-12.8-28.16-28.16-28.16z" p-id="14239"></path></svg>