<?xml version="1.0" standalone="no"?><!DOCTYPE svg PUBLIC "-//W3C//DTD SVG 1.1//EN" "http://www.w3.org/Graphics/SVG/1.1/DTD/svg11.dtd"><svg t="1572589319289" class="icon" viewBox="0 0 1024 1024" version="1.1" xmlns="http://www.w3.org/2000/svg" p-id="14013" xmlns:xlink="http://www.w3.org/1999/xlink" width="200" height="200"><defs><style type="text/css"></style></defs><path d="M908.288 540.672h-784.384c-16.896 0-30.208-13.312-30.208-30.208 0-16.896 13.312-30.208 30.208-30.208h784.384c16.896 0 30.208 13.312 30.208 30.208 0 16.896-13.824 30.208-30.208 30.208z m-90.624 361.984h-181.248c-16.896 0-30.208-13.312-30.208-30.208 0-16.896 13.312-30.208 30.208-30.208h181.248c16.896 0 30.208-13.312 30.208-30.208v-151.04c0-16.896 13.312-30.208 30.208-30.208 16.896 0 30.208 13.312 30.208 30.208v151.04c0 50.176-40.96 90.624-90.624 90.624z m-452.608 0h-151.04c-49.664 0-90.624-40.448-90.624-90.624v-151.04c0-16.896 13.312-30.208 30.208-30.208 16.896 0 30.208 13.312 30.208 30.208v151.04c0 16.896 13.312 30.208 30.208 30.208h151.04c16.896 0 30.208 13.312 30.208 30.208 0 16.896-13.312 30.208-30.208 30.208z m-210.944-513.024c-16.896 0-30.208-13.312-30.208-30.208v-151.04c0-49.664 40.448-90.624 90.624-90.624h151.04c16.896 0 30.208 13.312 30.208 30.208 0 16.896-13.312 30.208-30.208 30.208h-151.04c-16.384 0-30.208 13.312-30.208 30.208v151.04c-0.512 16.896-13.824 30.208-30.208 30.208z m723.968 0c-16.896 0-30.208-13.312-30.208-30.208v-151.04c0-16.384-13.312-30.208-30.208-30.208h-181.248c-16.896 0-30.208-13.312-30.208-30.208 0-16.896 13.312-30.208 30.208-30.208h181.248c49.664 0 90.624 40.448 90.624 90.624v151.04c0 16.896-13.824 30.208-30.208 30.208z" fill="#8a8a8a" p-id="14014"></path></svg>