<?xml version="1.0" standalone="no"?><!DOCTYPE svg PUBLIC "-//W3C//DTD SVG 1.1//EN" "http://www.w3.org/Graphics/SVG/1.1/DTD/svg11.dtd"><svg t="1572589314494" class="icon" viewBox="0 0 1024 1024" version="1.1" xmlns="http://www.w3.org/2000/svg" p-id="13902" xmlns:xlink="http://www.w3.org/1999/xlink" width="200" height="200"><defs><style type="text/css"></style></defs><path d="M930.909091 372.363636H93.090909v512a46.545455 46.545455 0 0 0 46.545455 46.545455h744.727272a46.545455 46.545455 0 0 0 46.545455-46.545455V372.363636zM133.538909 279.272727H890.414545l-110.312727-165.469091A46.545455 46.545455 0 0 0 741.469091 93.090909H282.530909a46.545455 46.545455 0 0 0-38.725818 20.712727L133.492364 279.272727z m467.176727 422.493091l198.237091-198.237091a46.545455 46.545455 0 0 1 65.815273 65.815273l-263.307636 263.307636-0.744728-0.744727-0.791272 0.744727-148.107637-148.107636a46.545455 46.545455 0 0 1 65.815273-65.815273l83.083636 83.037091zM282.530909 0h458.938182a139.636364 139.636364 0 0 1 116.177454 62.184727l158.533819 237.847273A46.545455 46.545455 0 0 1 1024 325.818182v558.545454a139.636364 139.636364 0 0 1-139.636364 139.636364H139.636364a139.636364 139.636364 0 0 1-139.636364-139.636364V325.818182a46.545455 46.545455 0 0 1 7.819636-25.832727l158.533819-237.847273A139.636364 139.636364 0 0 1 282.530909 0zM186.181818 558.545455h186.181818a46.545455 46.545455 0 0 1 0 93.090909H186.181818a46.545455 46.545455 0 0 1 0-93.090909z m0 139.636363h93.090909a46.545455 46.545455 0 0 1 0 93.090909H186.181818a46.545455 46.545455 0 0 1 0-93.090909z" p-id="13903"></path></svg>